<?xml version="1.0" standalone="no"?>
<!DOCTYPE svg PUBLIC "-//W3C//DTD SVG 20010904//EN"
 "http://www.w3.org/TR/2001/REC-SVG-20010904/DTD/svg10.dtd">
<svg version="1.0" xmlns="http://www.w3.org/2000/svg"
 width="1040.000000pt" height="478.000000pt" viewBox="0 0 1040.000000 478.000000"
 preserveAspectRatio="xMidYMid meet">

<g transform="translate(0.000000,478.000000) scale(0.100000,-0.100000)"
fill="#000000" stroke="none">
<path d="M8045 3576 c-36 -16 -57 -39 -80 -88 -19 -41 -35 -46 -75 -23 -78 45
-169 -22 -130 -96 6 -11 21 -19 35 -19 27 0 32 9 13 28 -9 9 -8 12 4 12 35 0
48 -28 42 -86 -7 -52 -6 -55 28 -86 l34 -33 -56 -36 c-83 -53 -190 -157 -189
-183 0 -18 1 -18 7 -3 7 16 9 16 42 -2 28 -15 35 -24 33 -47 l-2 -28 19 31
c17 28 117 113 133 113 4 0 -6 -21 -22 -46 -31 -48 -118 -117 -134 -107 -6 3
-7 1 -3 -5 3 -5 2 -12 -3 -14 -5 -1 -23 -31 -40 -66 -32 -63 -45 -69 -61 -28
-7 17 -9 17 -9 4 -1 -13 -9 -18 -30 -18 -24 0 -28 -3 -24 -20 7 -25 -13 -50
-41 -51 -17 -1 -18 -2 -3 -6 10 -3 24 0 32 7 7 6 24 8 38 5 21 -6 25 -2 30 25
4 17 11 29 17 25 7 -4 7 -12 0 -25 -5 -10 -10 -20 -10 -22 0 -2 24 -2 52 0 70
5 186 -21 267 -58 36 -16 57 -23 47 -15 -10 8 -24 16 -30 19 -17 7 13 24 67
37 45 10 50 10 73 -12 44 -41 95 -169 67 -169 -4 0 -18 10 -31 23 -14 12 -22
16 -17 8 6 -10 4 -13 -7 -9 -8 4 -15 0 -15 -7 0 -8 19 -21 43 -30 41 -16 44
-15 91 8 26 14 67 30 91 37 23 7 42 17 42 22 0 5 4 7 9 4 5 -3 23 -3 41 0 22
5 28 9 18 15 -7 5 11 7 42 4 51 -4 52 -4 15 5 -46 10 -98 3 -89 -12 4 -6 -1
-8 -13 -4 -12 4 -50 -9 -101 -34 -45 -21 -82 -34 -82 -28 0 6 19 29 43 52 23
22 37 37 30 33 -7 -5 -13 1 -16 15 -4 21 -4 20 -6 -3 0 -15 -8 -33 -18 -40 -9
-8 -24 -27 -35 -44 l-18 -30 0 30 c-1 38 -29 100 -66 144 l-29 34 59 -7 c32
-3 67 -11 78 -17 17 -9 18 -8 9 9 -15 27 -85 87 -148 125 -28 18 -54 39 -56
48 -5 19 49 49 87 49 34 0 75 37 97 87 10 23 20 43 22 43 2 0 34 -42 71 -94
39 -53 111 -133 169 -187 100 -93 101 -94 71 -100 -16 -3 4 -5 43 -5 40 1 73
5 73 9 0 5 -4 6 -9 3 -5 -4 -20 -2 -33 3 -12 6 -17 10 -11 10 7 1 12 7 10 14
-1 6 4 11 11 10 6 -2 12 2 12 9 0 6 7 3 15 -8 9 -12 13 -13 10 -4 -4 10 1 16
14 17 23 2 37 -27 19 -39 -7 -4 -9 -8 -5 -8 14 0 199 62 195 66 -2 2 -39 -8
-83 -22 l-79 -25 -16 21 c-16 21 -45 23 -90 6 -17 -6 -147 164 -246 323 -33
52 -76 113 -96 136 -23 26 -39 54 -39 72 -2 26 -2 27 -6 3 -10 -60 -25 -90
-44 -90 -25 0 -57 16 -88 44 l-23 21 4 -45 c3 -25 8 -54 13 -65 8 -20 8 -20
-13 -1 -25 22 -27 42 -10 99 11 37 10 41 -10 55 -29 19 -30 56 -2 47 20 -6 26
-1 77 62 10 12 31 23 48 25 32 3 42 -15 44 -80 l1 -33 29 17 c15 9 36 30 45
46 17 27 17 30 -4 64 -14 21 -20 45 -17 60 6 31 -26 80 -72 111 -40 27 -136
31 -186 9z m40 -74 c-27 -17 -53 -43 -107 -111 -29 -35 -86 -24 -109 22 -10
18 -7 17 14 -5 38 -41 69 -37 108 15 40 53 89 96 109 97 8 0 1 -8 -15 -18z
m91 -7 c23 -35 14 -36 -18 -3 -17 18 -22 28 -13 28 8 0 22 -11 31 -25z m109
-54 c-3 -12 -16 -26 -28 -32 l-22 -12 23 25 c12 13 22 30 22 38 0 7 3 11 6 7
3 -3 3 -15 -1 -26z m-455 15 c0 -2 -9 -6 -20 -9 -11 -3 -18 -1 -14 4 5 9 34
13 34 5z m367 -38 c-3 -7 -5 -2 -5 12 0 14 2 19 5 13 2 -7 2 -19 0 -25z m-147
-15 c-27 -10 -61 -47 -82 -88 -24 -48 -47 -75 -62 -75 -6 0 -3 5 7 11 9 6 29
33 43 61 29 56 69 98 93 97 14 0 14 -1 1 -6z m88 -2 c9 -5 0 -10 -28 -14 -54
-7 -65 -18 -90 -85 -12 -32 -28 -63 -37 -69 -19 -15 -81 -17 -101 -4 -8 5 6 6
35 4 55 -6 73 7 92 69 15 45 47 88 67 88 8 0 14 5 14 10 0 12 30 13 48 1z
m-66 -249 c-5 -50 22 -83 59 -76 15 3 32 17 38 30 7 16 19 24 35 24 17 0 30 9
39 26 l14 26 44 -50 c24 -27 68 -88 96 -136 l53 -86 -28 -31 -29 -32 -61 86
c-34 47 -62 88 -62 91 0 3 15 7 33 7 30 2 30 2 4 6 -15 2 -25 9 -22 14 11 16
-11 10 -27 -8 -9 -10 -27 -41 -42 -70 -27 -55 -49 -73 -89 -73 -13 0 -49 -13
-80 -30 -62 -33 -123 -39 -167 -17 -39 19 -36 54 9 125 40 61 41 62 88 63 47
2 47 2 13 9 -19 4 -27 8 -18 9 9 0 20 6 24 12 4 8 -1 9 -17 4 -51 -15 -114
-52 -161 -93 l-48 -44 -26 21 c-15 12 -34 21 -43 21 -22 0 91 112 159 158 47
32 65 38 130 43 41 3 77 6 80 7 3 1 4 -15 2 -36z m98 -22 c0 -3 -7 -15 -15
-26 -15 -19 -15 -19 -30 0 -8 11 -15 33 -15 48 l0 29 30 -23 c17 -12 30 -25
30 -28z m370 -337 c44 -58 80 -112 80 -119 0 -33 -27 -19 -108 57 -48 45 -94
88 -102 96 -12 11 -10 17 15 43 16 16 30 30 32 30 1 0 39 -48 83 -107z m-631
11 c29 -8 51 -17 49 -19 -2 -2 -32 5 -68 15 -36 10 -58 19 -49 19 8 1 39 -6
68 -15z m95 -39 c11 -8 16 -15 10 -15 -5 0 -18 7 -28 15 -11 8 -16 15 -10 15
5 0 18 -7 28 -15z m-304 -33 c0 -21 -5 -28 -20 -29 -11 -1 -20 3 -20 8 0 6 4
8 9 5 5 -3 12 5 15 19 8 33 16 32 16 -3z m-76 -16 c-9 -29 -13 -31 -25 -19
-15 15 -5 40 15 40 12 0 15 -6 10 -21z"/>
<path d="M7953 2927 c6 -15 3 -17 -16 -12 -17 5 -19 4 -7 -4 27 -19 130 -10
130 11 0 5 -5 6 -12 2 -18 -11 -69 -6 -87 9 -12 10 -14 9 -8 -6z"/>
<path d="M7601 2714 c0 -11 3 -14 6 -6 3 7 2 16 -1 19 -3 4 -6 -2 -5 -13z"/>
<path d="M8201 3288 c-1 -9 4 -20 9 -23 6 -4 7 -11 4 -17 -4 -7 -2 -8 5 -4 8
5 9 12 3 19 -5 7 -12 19 -15 27 -4 12 -6 12 -6 -2z"/>
<path d="M1828 3213 c-28 -4 -36 -17 -18 -28 6 -4 10 -60 10 -136 0 -79 -4
-129 -10 -129 -5 0 -10 -4 -10 -10 0 -5 23 -10 50 -10 28 0 50 5 50 10 0 6 -4
10 -10 10 -16 0 -12 56 5 70 9 7 17 11 18 9 26 -37 37 -63 32 -79 -6 -18 -1
-20 44 -20 48 0 67 12 37 23 -7 3 -28 31 -45 63 l-33 57 29 23 c15 13 34 23
41 24 6 0 12 5 12 10 0 6 -22 10 -50 10 -46 0 -67 -12 -37 -23 8 -3 0 -17 -23
-41 l-35 -37 -5 102 c-3 56 -9 103 -15 104 -5 1 -22 0 -37 -2z"/>
<path d="M8168 3208 c5 -5 16 -8 23 -6 8 3 3 7 -10 11 -17 4 -21 3 -13 -5z"/>
<path d="M2164 3195 c-9 -23 3 -45 25 -45 22 0 41 27 34 48 -6 17 -52 15 -59
-3z"/>
<path d="M1040 3176 c0 -8 7 -16 15 -20 12 -4 15 -27 15 -115 0 -94 -3 -111
-17 -120 -29 -16 -10 -21 79 -23 66 -2 91 2 111 15 48 31 48 105 1 130 l-25
13 21 19 c20 18 26 60 12 81 -16 24 -54 34 -131 34 -63 0 -81 -3 -81 -14z
m150 -26 c24 -24 25 -38 4 -68 -10 -14 -25 -22 -45 -22 -28 0 -29 2 -29 48 0
27 3 52 7 55 13 13 43 7 63 -13z m18 -132 c17 -17 15 -64 -4 -82 -8 -9 -31
-16 -50 -16 l-34 0 0 55 0 55 38 0 c21 0 43 -5 50 -12z"/>
<path d="M1364 3101 c-42 -26 -61 -80 -45 -131 16 -53 44 -75 98 -75 38 0 49
5 74 33 38 43 41 117 6 157 -30 36 -91 43 -133 16z m84 -23 c15 -15 16 -112 2
-139 -6 -10 -21 -19 -35 -19 -18 0 -26 8 -35 36 -11 33 -8 104 6 126 8 12 48
10 62 -4z"/>
<path d="M1624 3110 c-80 -32 -86 -173 -9 -208 81 -37 164 30 152 122 -10 72
-77 113 -143 86z m76 -46 c6 -14 10 -40 10 -59 0 -54 -16 -85 -44 -85 -32 0
-46 26 -46 85 0 59 14 85 46 85 17 0 27 -8 34 -26z"/>
<path d="M2163 3113 c-25 -5 -32 -33 -8 -33 12 0 15 -16 15 -80 0 -64 -3 -80
-15 -80 -8 0 -15 -4 -15 -10 0 -5 25 -10 55 -10 53 0 72 11 40 24 -12 4 -15
25 -15 101 0 103 2 99 -57 88z"/>
<path d="M2321 3107 c-57 -29 -49 -85 17 -118 46 -24 62 -39 55 -55 -8 -22
-60 -18 -73 6 -16 30 -42 26 -38 -7 8 -68 168 -47 168 23 0 23 -34 56 -89 86
-36 20 -39 33 -12 48 23 12 51 3 51 -16 0 -8 9 -14 20 -14 14 0 20 7 20 24 0
18 -7 25 -31 30 -44 9 -61 7 -88 -7z"/>
<path d="M2611 3104 c-44 -19 -32 -29 32 -29 45 0 52 -3 55 -21 3 -18 -4 -22
-36 -28 -83 -13 -118 -74 -66 -115 32 -25 52 -26 81 -6 19 13 22 13 27 0 6
-18 52 -20 62 -3 4 6 2 14 -4 16 -8 2 -12 31 -12 83 0 66 -3 82 -20 99 -24 24
-71 25 -119 4z m89 -134 c0 -36 -33 -59 -56 -39 -21 17 -13 51 15 66 32 15 41
9 41 -27z"/>
<path d="M7662 2920 c0 -14 2 -19 5 -12 2 6 2 18 0 25 -3 6 -5 1 -5 -13z"/>
<path d="M7652 2870 c0 -14 2 -19 5 -12 2 6 2 18 0 25 -3 6 -5 1 -5 -13z"/>
<path d="M7131 2846 c10 -9 69 -36 69 -32 0 6 -55 36 -66 36 -4 0 -5 -2 -3 -4z"/>
<path d="M7642 2815 c0 -16 2 -22 5 -12 2 9 2 23 0 30 -3 6 -5 -1 -5 -18z"/>
<path d="M7101 2803 c0 -11 3 -13 6 -6 3 10 10 10 26 1 20 -10 21 -10 8 5 -18
22 -41 22 -40 0z"/>
<path d="M7250 2785 c14 -8 30 -14 35 -14 6 0 -1 6 -15 14 -14 8 -29 14 -35
14 -5 0 1 -6 15 -14z"/>
<path d="M7180 2775 c14 -8 30 -14 35 -14 6 0 -1 6 -15 14 -14 8 -29 14 -35
14 -5 0 1 -6 15 -14z"/>
<path d="M7066 2708 c-3 -40 -7 -190 -8 -332 l-3 -260 150 -37 c83 -20 281
-69 440 -108 l290 -70 293 34 293 33 232 228 c336 330 365 364 303 364 -13 0
-27 6 -29 13 -4 7 -6 6 -6 -4 -1 -12 -17 -20 -58 -27 -32 -5 -118 -20 -190
-33 -73 -12 -131 -24 -128 -27 2 -2 76 8 164 24 172 29 211 27 211 -15 0 -18
-411 -431 -488 -489 -32 -24 -53 -28 -271 -54 -130 -15 -246 -27 -258 -28 -19
0 -3 30 118 224 76 123 139 233 139 244 0 23 -7 21 209 58 90 16 159 30 153
32 -5 1 -88 -11 -184 -27 -96 -17 -177 -31 -181 -31 -4 0 -7 -11 -7 -25 0 -23
-4 -25 -45 -25 -40 0 -45 3 -45 23 0 21 -31 31 -540 171 l-540 150 0 28 c0 32
5 33 40 13 14 -8 30 -14 35 -14 14 0 -57 38 -72 39 -7 0 -13 -27 -17 -72z
m427 -309 l22 0 -22 -11 c-13 -6 -23 -20 -24 -32 0 -20 -1 -20 -9 2 -5 12 -17
25 -26 29 -15 6 -14 7 4 14 12 5 23 16 23 26 1 13 3 11 6 -4 3 -15 12 -23 26
-24z m740 -52 c-4 -8 -66 -107 -137 -221 -118 -189 -147 -228 -162 -214 -2 3
48 105 112 227 l116 221 39 0 c31 0 38 -3 32 -13z m-953 -43 c0 -14 7 -27 15
-29 46 -15 50 -19 22 -23 -16 -2 -30 -10 -33 -18 -14 -47 -17 -49 -23 -19 -5
23 -13 31 -36 36 -29 6 -27 8 18 23 11 3 17 16 17 36 0 18 4 29 10 25 6 -3 10
-17 10 -31z"/>
<path d="M7326 2755 c17 -7 44 -16 60 -20 25 -4 24 -3 -6 8 -19 8 -46 17 -60
20 -19 5 -17 3 6 -8z"/>
<path d="M8960 2745 c-25 -13 -40 -24 -35 -24 6 0 21 6 35 14 35 20 43 18 30
-6 -7 -11 -10 -23 -7 -25 2 -3 10 9 17 26 7 17 11 32 9 34 -2 2 -24 -7 -49
-19z"/>
<path d="M7256 2745 c17 -7 44 -16 60 -20 25 -4 24 -3 -6 8 -19 8 -46 17 -60
20 -19 5 -17 3 6 -8z"/>
<path d="M7180 2732 c8 -5 26 -13 40 -16 17 -5 20 -4 10 2 -8 5 -26 13 -40 16
-17 5 -20 4 -10 -2z"/>
<path d="M1390 2715 c-18 -21 -5 -45 25 -45 14 0 28 7 31 15 7 17 -12 45 -31
45 -7 0 -18 -7 -25 -15z"/>
<path d="M1870 2715 c0 -8 9 -15 20 -15 16 0 20 -7 20 -35 0 -34 -1 -35 -39
-35 -49 0 -87 -30 -101 -79 -11 -42 0 -93 26 -122 19 -21 64 -25 94 -9 13 7
21 7 25 0 10 -16 65 -12 65 5 0 8 -4 15 -10 15 -6 0 -10 55 -10 145 l0 145
-45 0 c-33 0 -45 -4 -45 -15z m38 -187 c3 -76 2 -78 -23 -84 -41 -10 -60 16
-60 80 0 62 17 88 54 84 25 -3 26 -5 29 -80z"/>
<path d="M3330 2715 c0 -8 7 -15 15 -15 23 0 22 -255 -1 -264 -28 -11 -4 -26
42 -26 32 0 44 4 44 15 0 8 -4 15 -10 15 -6 0 -10 30 -10 69 0 75 12 95 52 89
21 -3 23 -8 26 -80 2 -49 -1 -78 -8 -78 -5 0 -10 -7 -10 -15 0 -11 12 -15 50
-15 38 0 50 4 50 15 0 8 -4 15 -10 15 -6 0 -10 31 -10 73 0 90 -15 117 -66
117 -20 0 -44 -5 -55 -10 -18 -10 -19 -7 -19 50 l0 60 -40 0 c-29 0 -40 -4
-40 -15z"/>
<path d="M4667 2723 c-12 -11 -8 -23 8 -23 13 0 15 -21 15 -130 0 -109 -2
-130 -15 -130 -8 0 -15 -7 -15 -15 0 -12 13 -15 55 -15 42 0 55 3 55 15 0 8
-7 15 -15 15 -13 0 -15 23 -15 145 l0 145 -33 0 c-19 0 -37 -3 -40 -7z"/>
<path d="M4907 2723 c-13 -12 -7 -23 13 -23 16 0 20 -7 20 -35 0 -34 -1 -35
-41 -35 -31 0 -47 -6 -70 -29 -25 -26 -29 -37 -29 -86 0 -46 4 -60 25 -80 26
-27 63 -32 98 -14 16 9 22 9 25 0 6 -17 62 -14 62 4 0 8 -4 15 -10 15 -6 0
-10 55 -10 145 l0 145 -38 0 c-21 0 -42 -3 -45 -7z m31 -195 c3 -76 2 -78 -23
-84 -14 -3 -31 -1 -39 5 -20 17 -29 82 -16 116 13 35 28 46 55 43 18 -3 20
-12 23 -80z"/>
<path d="M7428 2723 c6 -2 18 -2 25 0 6 3 1 5 -13 5 -14 0 -19 -2 -12 -5z"/>
<path d="M7556 2713 c-6 -14 -5 -15 5 -6 7 7 10 15 7 18 -3 3 -9 -2 -12 -12z"/>
<path d="M7365 2710 c11 -5 27 -9 35 -9 9 0 8 4 -5 9 -11 5 -27 9 -35 9 -9 0
-8 -4 5 -9z"/>
<path d="M7488 2713 c12 -2 30 -2 40 0 9 3 -1 5 -23 4 -22 0 -30 -2 -17 -4z"/>
<path d="M7295 2690 c11 -5 27 -9 35 -9 9 0 8 4 -5 9 -11 5 -27 9 -35 9 -9 0
-8 -4 5 -9z"/>
<path d="M7428 2693 c6 -2 18 -2 25 0 6 3 1 5 -13 5 -14 0 -19 -2 -12 -5z"/>
<path d="M2711 2660 c-5 -17 -17 -33 -26 -36 -19 -8 -20 -24 0 -24 11 0 15
-19 17 -86 3 -101 13 -114 73 -98 38 9 48 28 17 30 -9 1 -23 2 -29 3 -9 1 -13
23 -13 76 l0 75 30 0 c20 0 30 5 30 15 0 10 -10 15 -30 15 -27 0 -30 3 -30 30
0 40 -25 40 -39 0z"/>
<path d="M3206 2655 c-8 -19 -20 -35 -25 -35 -6 0 -11 -4 -11 -10 0 -5 7 -10
15 -10 12 0 15 -17 15 -89 0 -101 7 -109 76 -96 42 7 48 37 7 33 l-28 -3 -3
78 -3 77 31 0 c20 0 30 5 30 15 0 10 -10 15 -30 15 -27 0 -30 3 -30 30 0 42
-26 39 -44 -5z"/>
<path d="M7478 2683 c6 -2 18 -2 25 0 6 3 1 5 -13 5 -14 0 -19 -2 -12 -5z"/>
<path d="M8964 2679 c-2 -4 -18 -10 -35 -14 -17 -4 -28 -9 -25 -12 3 -3 26 2
52 11 26 9 49 16 50 16 8 0 -11 -36 -24 -47 -13 -10 -10 -12 16 -10 29 2 47
17 21 17 -7 0 -9 10 -5 25 6 22 3 25 -20 23 -14 -2 -28 -6 -30 -9z"/>
<path d="M7358 2673 c7 -3 16 -2 19 1 4 3 -2 6 -13 5 -11 0 -14 -3 -6 -6z"/>
<path d="M7398 2663 c6 -2 18 -2 25 0 6 3 1 5 -13 5 -14 0 -19 -2 -12 -5z"/>
<path d="M7593 2663 c9 -2 23 -2 30 0 6 3 -1 5 -18 5 -16 0 -22 -2 -12 -5z"/>
<path d="M7453 2653 c9 -2 23 -2 30 0 6 3 -1 5 -18 5 -16 0 -22 -2 -12 -5z"/>
<path d="M7668 2653 c12 -2 30 -2 40 0 9 3 -1 5 -23 4 -22 0 -30 -2 -17 -4z"/>
<path d="M7518 2643 c12 -2 30 -2 40 0 9 3 -1 5 -23 4 -22 0 -30 -2 -17 -4z"/>
<path d="M7743 2643 c9 -2 23 -2 30 0 6 3 -1 5 -18 5 -16 0 -22 -2 -12 -5z"/>
<path d="M7613 2633 c9 -2 23 -2 30 0 6 3 -1 5 -18 5 -16 0 -22 -2 -12 -5z"/>
<path d="M7798 2633 c7 -3 16 -2 19 1 4 3 -2 6 -13 5 -11 0 -14 -3 -6 -6z"/>
<path d="M8838 2633 c7 -3 16 -2 19 1 4 3 -2 6 -13 5 -11 0 -14 -3 -6 -6z"/>
<path d="M1010 2620 c0 -5 6 -13 14 -17 8 -4 26 -50 42 -101 26 -88 29 -93 53
-90 22 3 27 12 47 83 12 44 23 74 23 67 1 -8 10 -45 22 -83 18 -59 24 -69 44
-69 20 0 26 11 49 84 14 46 26 89 26 94 0 15 22 21 43 10 24 -12 25 -153 1
-162 -29 -11 -3 -26 47 -26 37 0 49 4 49 15 0 8 -4 15 -10 15 -6 0 -10 38 -10
94 l0 95 -90 0 c-49 0 -90 -3 -90 -6 0 -3 7 -11 15 -17 13 -10 12 -19 -2 -76
l-17 -65 -25 83 c-21 71 -27 82 -47 82 -19 0 -25 -9 -39 -57 -32 -115 -29
-112 -48 -43 -13 44 -15 66 -7 74 19 19 10 26 -40 26 -27 0 -50 -4 -50 -10z"/>
<path d="M1500 2615 c0 -8 5 -15 10 -15 6 0 10 -33 10 -80 0 -47 -4 -80 -10
-80 -5 0 -10 -7 -10 -15 0 -11 12 -15 50 -15 38 0 50 4 50 15 0 8 -4 15 -10
15 -6 0 -10 32 -10 75 0 71 1 75 25 81 48 12 55 1 55 -81 0 -43 -4 -75 -10
-75 -5 0 -10 -7 -10 -15 0 -11 12 -15 50 -15 38 0 50 4 50 15 0 8 -4 15 -9 15
-4 0 -11 36 -14 80 -3 45 -11 87 -17 95 -15 18 -73 20 -103 4 -16 -9 -22 -9
-25 0 -6 17 -72 14 -72 -4z"/>
<path d="M2047 2604 c-69 -69 -29 -194 62 -194 71 0 111 42 111 119 0 28 -8
48 -26 70 -22 27 -32 31 -74 31 -38 0 -53 -5 -73 -26z m103 -13 c16 -31 13
-127 -6 -145 -19 -20 -25 -20 -50 -2 -15 11 -19 27 -19 74 0 63 15 92 46 92
10 0 23 -9 29 -19z"/>
<path d="M2240 2621 c0 -6 4 -12 8 -15 5 -3 22 -48 38 -101 27 -89 31 -95 53
-93 22 3 27 12 45 80 l21 76 24 -79 c21 -69 27 -79 47 -79 20 0 26 11 49 88
15 48 33 94 41 103 22 24 17 29 -26 29 -41 0 -49 -7 -29 -27 7 -7 6 -27 -5
-68 -18 -69 -22 -74 -30 -38 -28 113 -37 133 -61 133 -20 0 -26 -7 -35 -42 -6
-24 -16 -61 -22 -83 l-11 -40 -18 65 c-17 57 -17 66 -4 76 25 19 17 24 -35 24
-27 0 -50 -4 -50 -9z"/>
<path d="M2887 2619 c-43 -25 -60 -106 -32 -159 31 -59 104 -69 157 -21 30 26
33 35 33 84 0 75 -28 107 -94 107 -25 0 -54 -5 -64 -11z m87 -31 c32 -46 11
-158 -29 -158 -25 0 -45 43 -45 97 0 76 41 109 74 61z"/>
<path d="M3626 2599 c-20 -24 -26 -41 -26 -81 0 -41 5 -54 29 -79 21 -21 39
-29 65 -29 42 0 88 19 83 34 -5 11 -7 12 -48 1 -29 -7 -66 18 -71 50 -3 18 3
20 60 23 l62 3 0 32 c0 54 -23 77 -80 77 -42 0 -52 -4 -74 -31z m92 -1 c7 -7
12 -22 12 -35 0 -20 -5 -23 -41 -23 -40 0 -41 1 -34 27 10 41 39 55 63 31z"/>
<path d="M3890 2615 c0 -8 4 -15 9 -15 4 0 21 -43 36 -95 27 -90 30 -96 54
-93 22 3 27 12 45 80 l21 76 24 -79 c21 -69 27 -79 47 -79 20 0 26 11 48 84
14 46 26 88 26 94 0 5 7 12 15 16 30 11 14 26 -30 26 -48 0 -55 -6 -29 -24 14
-11 14 -18 -3 -75 l-18 -64 -24 82 c-21 71 -26 81 -47 81 -19 0 -25 -9 -39
-57 -32 -116 -30 -114 -48 -43 -10 41 -13 68 -7 74 19 19 9 26 -35 26 -33 0
-45 -4 -45 -15z"/>
<path d="M4269 2601 c-25 -25 -29 -37 -29 -81 0 -44 4 -56 29 -81 23 -22 39
-29 69 -29 76 0 124 69 102 149 -13 50 -42 71 -98 71 -35 0 -49 -6 -73 -29z
m102 -7 c8 -10 14 -41 14 -76 0 -48 -4 -63 -20 -74 -24 -18 -30 -18 -49 2 -19
18 -22 114 -6 145 13 23 43 25 61 3z"/>
<path d="M4480 2616 c0 -8 7 -16 15 -20 11 -4 15 -23 15 -80 0 -56 -4 -75 -15
-80 -36 -13 -11 -26 51 -26 48 0 65 3 62 13 -3 6 -15 13 -27 15 -20 3 -22 8
-19 70 l3 67 38 3 c32 3 37 7 37 28 0 31 -34 33 -67 2 l-23 -21 0 21 c0 18 -6
22 -35 22 -23 0 -35 -5 -35 -14z"/>
<path d="M7678 2623 c6 -2 18 -2 25 0 6 3 1 5 -13 5 -14 0 -19 -2 -12 -5z"/>
<path d="M7894 2604 c38 -13 71 -22 73 -20 5 5 -116 46 -131 45 -6 0 20 -11
58 -25z"/>
<path d="M8483 2623 c9 -2 25 -2 35 0 9 3 1 5 -18 5 -19 0 -27 -2 -17 -5z"/>
<path d="M8798 2623 c7 -3 16 -2 19 1 4 3 -2 6 -13 5 -11 0 -14 -3 -6 -6z"/>
<path d="M7728 2613 c7 -3 16 -2 19 1 4 3 -2 6 -13 5 -11 0 -14 -3 -6 -6z"/>
<path d="M8423 2613 c9 -2 23 -2 30 0 6 3 -1 5 -18 5 -16 0 -22 -2 -12 -5z"/>
<path d="M8748 2613 c6 -2 18 -2 25 0 6 3 1 5 -13 5 -14 0 -19 -2 -12 -5z"/>
<path d="M8938 2613 c7 -3 16 -2 19 1 4 3 -2 6 -13 5 -11 0 -14 -3 -6 -6z"/>
<path d="M7780 2600 c34 -11 60 -11 35 0 -11 5 -29 8 -40 8 -16 0 -15 -2 5 -8z"/>
<path d="M8378 2603 c7 -3 16 -2 19 1 4 3 -2 6 -13 5 -11 0 -14 -3 -6 -6z"/>
<path d="M8698 2603 c6 -2 18 -2 25 0 6 3 1 5 -13 5 -14 0 -19 -2 -12 -5z"/>
<path d="M8888 2603 c6 -2 18 -2 25 0 6 3 1 5 -13 5 -14 0 -19 -2 -12 -5z"/>
<path d="M8320 2590 c-18 -12 -2 -12 25 0 13 6 15 9 5 9 -8 0 -22 -4 -30 -9z"/>
<path d="M8623 2593 c9 -2 25 -2 35 0 9 3 1 5 -18 5 -19 0 -27 -2 -17 -5z"/>
<path d="M8833 2593 c9 -2 23 -2 30 0 6 3 -1 5 -18 5 -16 0 -22 -2 -12 -5z"/>
<path d="M7848 2583 c7 -3 16 -2 19 1 4 3 -2 6 -13 5 -11 0 -14 -3 -6 -6z"/>
<path d="M8518 2583 c12 -2 32 -2 45 0 12 2 2 4 -23 4 -25 0 -35 -2 -22 -4z"/>
<path d="M8763 2583 c9 -2 25 -2 35 0 9 3 1 5 -18 5 -19 0 -27 -2 -17 -5z"/>
<path d="M8010 2560 c19 -11 40 -19 45 -19 6 0 -6 8 -25 19 -19 11 -39 19 -45
19 -5 0 6 -8 25 -19z"/>
<path d="M8653 2573 c15 -2 39 -2 55 0 15 2 2 4 -28 4 -30 0 -43 -2 -27 -4z"/>
<path d="M7959 2549 c30 -10 56 -17 58 -15 5 5 -86 36 -101 35 -6 0 13 -9 43
-20z"/>
<path d="M8090 2556 c0 -2 8 -10 18 -17 15 -13 16 -12 3 4 -13 16 -21 21 -21
13z"/>
<path d="M8070 2510 c8 -5 20 -10 25 -10 6 0 3 5 -5 10 -8 5 -19 10 -25 10 -5
0 -3 -5 5 -10z"/>
<path d="M1250 2010 c0 -43 4 -60 13 -60 8 0 13 9 11 23 -1 12 -3 39 -3 60 -2
62 -21 41 -21 -23z"/>
<path d="M2167 2051 c4 -15 -1 -20 -19 -23 -19 -2 -23 -9 -23 -38 0 -32 3 -35
33 -38 l32 -3 0 60 c0 46 -4 61 -14 61 -9 0 -12 -7 -9 -19z m3 -61 c0 -19 -5
-30 -14 -30 -20 0 -29 16 -21 40 10 32 35 25 35 -10z"/>
<path d="M2664 2054 c3 -9 6 -36 6 -60 0 -24 3 -44 8 -44 4 0 7 14 7 32 0 17
6 33 12 35 19 7 28 -26 14 -48 -13 -22 1 -25 19 -4 20 24 4 65 -25 65 -18 0
-25 5 -25 20 0 11 -5 20 -11 20 -6 0 -8 -7 -5 -16z"/>
<path d="M3197 2050 c4 -15 0 -20 -15 -20 -26 0 -46 -33 -37 -60 5 -14 15 -20
38 -20 l32 0 -3 60 c-2 33 -7 60 -12 60 -4 0 -6 -9 -3 -20z m3 -60 c0 -32 -26
-43 -36 -15 -9 21 3 45 21 45 10 0 15 -10 15 -30z"/>
<path d="M3674 2054 c3 -9 6 -36 6 -60 0 -24 3 -44 8 -44 4 0 7 15 7 33 0 22
5 32 15 32 19 0 26 -45 8 -56 -8 -5 -8 -9 -2 -9 21 0 36 29 30 55 -5 18 -13
25 -31 25 -18 0 -25 5 -25 20 0 11 -5 20 -11 20 -6 0 -8 -7 -5 -16z"/>
<path d="M3965 2010 c0 -41 4 -60 13 -60 6 0 12 7 12 15 0 8 5 15 10 15 6 0
10 -7 10 -15 0 -8 7 -15 16 -15 15 0 15 2 1 24 -14 21 -14 25 1 40 15 15 15
16 0 16 -9 0 -19 -8 -24 -17 -6 -14 -9 -11 -13 16 -10 58 -26 46 -26 -19z"/>
<path d="M4625 2050 c5 -15 2 -20 -13 -20 -26 0 -44 -24 -40 -52 2 -18 10 -24
38 -26 l35 -3 -3 61 c-2 33 -8 60 -14 60 -5 0 -6 -9 -3 -20z m5 -60 c0 -23 -4
-30 -20 -30 -14 0 -20 7 -20 23 0 27 7 37 27 37 8 0 13 -12 13 -30z"/>
<path d="M3250 2050 c0 -5 5 -10 10 -10 6 0 10 5 10 10 0 6 -4 10 -10 10 -5 0
-10 -4 -10 -10z"/>
<path d="M1034 1993 c14 -41 36 -56 36 -24 0 27 16 27 23 1 7 -27 24 -25 31 4
3 13 9 31 12 40 3 9 1 16 -5 16 -6 0 -11 -11 -11 -25 0 -14 -4 -25 -10 -25 -5
0 -10 9 -10 19 0 32 -19 34 -31 4 -10 -26 -12 -26 -19 -8 -4 11 -6 23 -3 28 2
4 -3 7 -11 7 -13 0 -13 -5 -2 -37z"/>
<path d="M1166 2022 c-3 -6 3 -8 14 -5 26 7 26 -14 0 -22 -11 -3 -20 -15 -20
-26 0 -15 7 -19 33 -19 33 0 34 0 28 38 -5 28 -12 38 -28 40 -11 2 -24 -1 -27
-6z m34 -47 c0 -8 -7 -15 -15 -15 -26 0 -18 20 13 29 1 1 2 -6 2 -14z"/>
<path d="M1295 2021 c3 -5 1 -12 -4 -16 -15 -8 9 -55 27 -55 13 0 13 3 -1 18
-22 24 -21 38 1 51 15 9 14 10 -6 11 -13 0 -21 -4 -17 -9z"/>
<path d="M1351 2016 c-7 -8 -11 -25 -9 -38 2 -18 10 -24 33 -25 27 -2 28 -2 8
7 -31 13 -29 30 3 30 19 0 25 5 22 18 -4 22 -41 27 -57 8z m39 -6 c0 -5 -7
-10 -15 -10 -8 0 -15 5 -15 10 0 6 7 10 15 10 8 0 15 -4 15 -10z"/>
<path d="M1478 1990 c4 -37 6 -40 36 -40 31 0 31 1 28 40 -2 22 -7 40 -11 40
-4 0 -5 -16 -3 -36 4 -31 2 -35 -14 -32 -13 2 -20 13 -22 36 -2 17 -6 32 -10
32 -4 0 -6 -18 -4 -40z"/>
<path d="M1575 1968 c0 -51 2 -58 20 -58 11 0 15 3 9 8 -5 4 -10 27 -10 52 1
33 5 45 16 45 19 0 26 -45 8 -56 -10 -7 -9 -9 4 -9 10 0 20 10 24 25 10 39 -1
55 -38 53 l-33 -1 0 -59z"/>
<path d="M1710 2025 c0 -2 7 -23 16 -45 14 -34 14 -43 3 -57 -12 -14 -12 -16
1 -11 8 2 24 30 36 61 18 46 19 57 8 57 -8 0 -13 -3 -13 -7 1 -5 1 -19 0 -32
-1 -30 -21 -15 -24 18 -1 11 -7 21 -14 21 -7 0 -13 -2 -13 -5z"/>
<path d="M1810 2010 c-17 -32 -3 -60 30 -60 32 0 46 25 35 60 -8 27 -51 27
-65 0z m48 -23 c2 -19 -1 -27 -13 -27 -19 0 -30 24 -21 46 9 23 31 11 34 -19z"/>
<path d="M1908 1990 c4 -37 6 -40 36 -40 31 0 31 1 28 40 -5 48 -17 54 -17 8
0 -23 -5 -34 -17 -36 -15 -3 -18 4 -18 32 0 20 -3 36 -8 36 -4 0 -6 -18 -4
-40z"/>
<path d="M2005 1990 c0 -30 4 -40 16 -40 12 0 14 7 11 30 -3 23 0 30 12 30 9
0 16 5 16 10 0 6 -12 10 -27 10 -26 0 -28 -3 -28 -40z"/>
<path d="M2225 1989 c0 -32 3 -39 20 -38 11 0 14 3 8 6 -19 7 -16 44 4 58 15
11 14 13 -8 13 -22 0 -25 -5 -24 -39z"/>
<path d="M2294 2006 c-9 -38 1 -56 33 -55 24 2 25 2 6 6 -32 6 -29 33 3 33 36
0 29 34 -8 38 -22 3 -29 -2 -34 -22z m46 4 c0 -5 -7 -10 -15 -10 -8 0 -15 5
-15 10 0 6 7 10 15 10 8 0 15 -4 15 -10z"/>
<path d="M2386 2022 c-3 -6 3 -8 14 -5 26 7 26 -14 0 -22 -11 -3 -20 -15 -20
-26 0 -15 7 -19 33 -19 33 0 34 0 28 38 -5 28 -12 38 -28 40 -11 2 -24 -1 -27
-6z m31 -59 c-3 -3 -11 -2 -17 2 -9 6 -9 10 1 16 14 8 27 -7 16 -18z"/>
<path d="M2468 1989 c5 -47 27 -52 27 -6 0 22 5 32 15 32 10 0 15 -10 15 -32
0 -18 5 -33 11 -33 6 0 9 12 6 29 -4 32 15 52 29 30 5 -8 8 -24 6 -36 -2 -13
1 -23 7 -23 7 0 10 15 8 40 l-4 40 -62 -1 -61 -1 3 -39z"/>
<path d="M2771 1984 c18 -44 19 -47 2 -60 -16 -12 -16 -13 -1 -14 11 0 23 18
37 55 24 64 24 65 12 65 -5 0 -12 -17 -16 -37 -7 -36 -8 -37 -16 -14 -6 14 -7
31 -5 38 3 8 -2 13 -14 13 -19 0 -19 -1 1 -46z"/>
<path d="M2895 1990 c0 -30 4 -40 16 -40 12 0 15 7 11 25 -3 18 1 30 14 40 18
13 17 14 -11 15 -28 0 -30 -2 -30 -40z"/>
<path d="M2974 2016 c-3 -8 -4 -25 -2 -38 2 -18 10 -23 33 -25 27 -2 28 -1 6
5 -35 11 -39 32 -6 32 20 0 26 4 23 18 -4 22 -46 29 -54 8z m41 -6 c3 -5 -3
-10 -15 -10 -12 0 -18 5 -15 10 3 6 10 10 15 10 5 0 12 -4 15 -10z"/>
<path d="M3060 2022 c0 -6 9 -8 20 -5 29 8 25 -12 -6 -26 -33 -15 -26 -35 15
-39 32 -3 32 -3 29 35 -3 33 -7 38 -30 41 -16 2 -28 -1 -28 -6z m40 -47 c0 -8
-7 -15 -15 -15 -16 0 -20 12 -8 23 11 12 23 8 23 -8z"/>
<path d="M3245 1990 c0 -29 4 -40 15 -40 12 0 15 9 12 40 -2 22 -9 40 -16 40
-6 0 -11 -17 -11 -40z"/>
<path d="M3301 2014 c6 -8 9 -25 7 -39 -3 -15 -1 -25 6 -25 6 0 11 15 11 33 0
22 5 32 15 32 10 0 15 -10 15 -32 0 -18 4 -33 10 -33 6 0 9 16 7 39 -4 39 -5
40 -43 39 -32 0 -37 -3 -28 -14z"/>
<path d="M3409 2020 c-1 -5 -2 -31 -2 -57 l-1 -48 34 0 c28 0 35 4 35 20 0 14
-9 22 -30 26 l-30 6 26 11 c15 6 29 20 32 31 4 18 1 21 -29 21 -19 0 -34 -4
-35 -10z m41 -15 c0 -8 -7 -15 -15 -15 -8 0 -15 7 -15 15 0 8 7 15 15 15 8 0
15 -7 15 -15z m15 -70 c0 -5 -10 -11 -22 -13 -16 -2 -23 2 -23 13 0 11 7 15
23 13 12 -2 22 -7 22 -13z"/>
<path d="M3550 2020 c0 -5 6 -7 14 -4 25 10 26 -13 1 -24 -37 -17 -32 -42 8
-42 32 0 32 1 29 40 -4 34 -7 40 -28 40 -13 0 -24 -4 -24 -10z m40 -45 c0 -8
-7 -15 -15 -15 -16 0 -20 12 -8 23 11 12 23 8 23 -8z"/>
<path d="M3774 2005 c-9 -36 2 -55 30 -55 31 0 47 27 35 58 -12 32 -56 30 -65
-3z m51 -5 c8 -24 -1 -40 -21 -40 -9 0 -14 11 -14 30 0 35 25 42 35 10z"/>
<path d="M3870 2011 c-16 -32 4 -63 38 -59 24 3 27 7 27 38 0 31 -3 35 -27 38
-19 2 -30 -3 -38 -17z m50 -21 c0 -20 -5 -30 -15 -30 -18 0 -30 24 -21 45 10
28 36 17 36 -15z"/>
<path d="M4104 2005 c-9 -37 2 -55 33 -54 24 2 25 2 6 6 -32 6 -29 33 3 33 20
0 25 4 20 16 -3 9 -6 18 -6 20 0 2 -11 4 -25 4 -18 0 -26 -7 -31 -25z m46 5
c0 -5 -7 -10 -15 -10 -8 0 -15 5 -15 10 0 6 7 10 15 10 8 0 15 -4 15 -10z"/>
<path d="M4195 1993 c9 -20 18 -39 20 -42 8 -7 21 11 33 47 9 26 8 32 -3 32
-8 0 -12 -6 -9 -14 3 -8 1 -23 -5 -33 -9 -16 -11 -14 -17 15 -3 17 -13 32 -20
32 -12 0 -12 -6 1 -37z"/>
<path d="M4284 2016 c-3 -8 -4 -25 -2 -38 2 -18 10 -23 33 -25 18 -1 22 1 8 3
-32 7 -38 34 -8 34 18 0 25 5 25 20 0 15 -7 20 -25 20 -14 0 -28 -6 -31 -14z
m41 -6 c3 -5 -1 -10 -9 -10 -9 0 -16 5 -16 10 0 6 4 10 9 10 6 0 13 -4 16 -10z"/>
<path d="M4368 1989 c3 -32 8 -39 26 -38 11 0 15 3 9 6 -19 7 -16 53 2 53 28
0 15 17 -13 18 -26 0 -27 -1 -24 -39z"/>
<path d="M4451 1984 c18 -44 19 -47 2 -60 -16 -12 -16 -13 -1 -14 11 0 22 16
34 48 10 26 22 53 27 60 7 8 5 12 -6 12 -8 0 -17 -13 -22 -32 -6 -32 -7 -32
-16 -10 -5 13 -7 28 -3 33 3 5 -4 9 -15 9 l-20 0 20 -46z"/>
<path d="M4680 2020 c0 -5 6 -7 14 -4 25 10 26 -13 1 -24 -37 -17 -32 -42 8
-42 32 0 32 1 29 40 -4 34 -7 40 -28 40 -13 0 -24 -4 -24 -10z m40 -45 c0 -8
-7 -15 -15 -15 -16 0 -20 12 -8 23 11 12 23 8 23 -8z"/>
<path d="M4771 1984 c20 -44 20 -46 2 -60 -17 -14 -17 -15 0 -12 25 4 74 118
51 118 -8 0 -13 -3 -11 -7 3 -5 0 -19 -5 -33 l-10 -25 -9 23 c-5 13 -7 28 -3
33 3 5 -4 9 -15 9 -20 0 -20 0 0 -46z"/>
<path d="M8509 1752 l-127 -67 -72 -127 c-58 -103 -70 -130 -61 -145 9 -15 10
-16 11 -2 0 12 39 31 133 67 129 49 132 50 149 31 16 -19 17 -17 38 33 19 49
20 50 15 16 -11 -73 3 -37 31 77 15 63 31 115 34 115 4 0 20 -19 37 -42 16
-24 51 -73 77 -110 l47 -67 -110 -35 c-61 -20 -115 -36 -121 -36 -6 0 -8 12
-5 28 5 24 4 24 -4 5 -7 -16 -36 -30 -110 -54 -77 -25 -97 -35 -85 -42 12 -7
78 10 228 58 208 67 211 68 228 103 17 34 17 37 0 57 -103 117 -186 205 -196
204 -6 0 -68 -30 -137 -67z m239 -57 c51 -57 92 -107 92 -110 0 -4 -6 -12 -13
-19 -11 -11 -17 -7 -36 23 l-22 36 25 -28 c14 -15 26 -24 26 -18 0 5 -13 20
-28 33 -15 12 -27 26 -27 29 0 8 -99 129 -106 129 -12 0 -51 -119 -43 -131 4
-8 3 -10 -5 -5 -9 6 -10 0 -6 -21 5 -19 4 -24 -3 -14 -7 10 -14 0 -27 -38 -15
-47 -35 -61 -35 -25 0 20 105 264 114 264 1 0 44 -47 94 -105z m-248 -266
c-46 -16 -89 -29 -95 -28 -14 1 147 57 165 57 8 0 -23 -13 -70 -29z"/>
<path d="M6690 1701 c-6 -12 -10 -52 -8 -89 l3 -67 102 -27 c91 -23 111 -25
175 -17 72 9 73 9 140 76 45 44 64 71 58 77 -6 6 -10 18 -10 28 0 22 -16 24
-24 3 -3 -8 -11 -15 -18 -15 -9 0 -9 3 2 11 12 8 11 9 -5 5 -11 -3 -44 -10
-74 -16 -30 -5 -60 -15 -66 -20 -9 -8 -23 -5 -46 9 -19 11 -65 27 -104 35 -38
8 -80 18 -92 22 -15 4 -24 0 -33 -15z m40 -11 c0 -5 -5 -10 -11 -10 -5 0 -7 5
-4 10 3 6 8 10 11 10 2 0 4 -4 4 -10z m161 -43 c55 -19 71 -21 95 -11 28 11
160 27 151 18 -4 -5 -164 -36 -182 -36 -24 1 -177 51 -155 51 14 0 55 -10 91
-22z m204 -63 c-67 -62 -91 -74 -141 -74 -33 0 -45 12 -23 25 6 4 8 14 5 22
-3 8 -1 11 4 8 5 -3 15 5 22 20 12 26 17 28 103 44 93 17 95 14 30 -45z"/>
<path d="M8465 1465 c-25 -12 -26 -14 -5 -9 28 7 60 23 45 23 -5 0 -23 -6 -40
-14z"/>
<path d="M8370 1430 c-8 -5 -10 -10 -5 -10 6 0 17 5 25 10 8 5 11 10 5 10 -5
0 -17 -5 -25 -10z"/>
<path d="M8280 1395 c-22 -12 -23 -14 -7 -21 10 -3 21 -4 24 0 4 3 0 6 -8 6
-8 1 -3 7 11 15 14 8 21 14 15 14 -5 0 -21 -6 -35 -14z"/>
<path d="M7436 1335 c-4 -12 5 -15 57 -13 l62 2 -55 5 -55 5 75 6 75 6 -76 2
c-60 2 -78 -1 -83 -13z"/>
<path d="M7315 1330 c3 -5 1 -10 -4 -10 -6 0 -11 -4 -11 -8 0 -5 15 -6 32 -4
28 4 30 6 13 12 -15 6 -9 9 25 12 l45 5 -53 1 c-33 1 -51 -2 -47 -8z"/>
<path d="M7638 1333 c23 -2 59 -2 80 0 20 2 1 4 -43 4 -44 0 -61 -2 -37 -4z"/>
<path d="M7807 1323 l51 -4 -80 -135 c-84 -140 -91 -145 -103 -72 -4 21 -11
35 -16 32 -6 -3 -7 6 -4 23 5 21 4 24 -4 13 -9 -12 -11 -13 -11 -1 0 8 -2 12
-5 9 -6 -6 42 -138 57 -156 8 -9 8 -16 0 -24 -8 -8 -16 0 -30 33 -11 24 -36
79 -55 121 -19 42 -34 78 -32 80 2 2 -8 5 -23 6 -91 6 -239 26 -249 34 -7 5
-14 5 -18 -2 -6 -10 114 -209 138 -228 7 -5 68 -24 137 -42 l124 -32 23 28
c13 16 62 82 109 146 78 107 84 119 70 134 -9 8 -16 22 -16 30 0 11 -13 14
-57 12 l-58 -2 52 -3z m73 -50 c0 -10 -173 -243 -177 -239 -3 2 21 40 52 85
31 44 58 89 60 100 6 33 35 70 51 64 8 -3 14 -7 14 -10z"/>
<path d="M7841 1257 c-13 -21 -12 -21 5 -5 10 10 16 20 13 22 -3 3 -11 -5 -18
-17z"/>
<path d="M7597 1313 c12 -2 24 -11 26 -19 3 -9 4 -8 3 3 -1 12 -10 18 -26 19
-21 1 -21 0 -3 -3z"/>
<path d="M7398 1303 c12 -2 30 -2 40 0 9 3 -1 5 -23 4 -22 0 -30 -2 -17 -4z"/>
<path d="M7488 1293 c12 -2 30 -2 40 0 9 3 -1 5 -23 4 -22 0 -30 -2 -17 -4z"/>
<path d="M7573 1283 c9 -2 14 -9 11 -15 -4 -6 -2 -8 4 -4 6 3 14 -3 17 -15 4
-11 9 -18 11 -16 3 2 -1 16 -7 31 -8 17 -20 26 -33 25 -17 -1 -18 -2 -3 -6z"/>
<path d="M7631 1254 c0 -11 3 -14 6 -6 3 7 2 16 -1 19 -3 4 -6 -2 -5 -13z"/>
<path d="M7641 1214 c0 -11 3 -14 6 -6 3 7 2 16 -1 19 -3 4 -6 -2 -5 -13z"/>
<path d="M6850 1004 c-19 -14 -41 -29 -49 -33 -11 -7 -12 -17 -1 -60 6 -28 16
-54 21 -57 11 -6 99 44 105 61 3 8 23 10 59 7 53 -4 55 -3 55 19 0 16 -14 36
-40 57 -49 40 -99 43 -150 6z m142 -14 l33 -29 -41 -1 c-33 0 -44 5 -62 30
l-23 30 31 0 c19 0 41 -11 62 -30z m-4 -47 c-10 -2 -26 -2 -35 0 -10 3 -2 5
17 5 19 0 27 -2 18 -5z m-78 -17 c0 -2 -8 -10 -17 -17 -16 -13 -17 -12 -4 4
13 16 21 21 21 13z"/>
</g>
</svg>
